<svg width="64" height="64" viewBox="0 0 64 64" fill="none" xmlns="http://www.w3.org/2000/svg">
  <g clip-path="url(#clip0_118_202)">
  <path d="M31.9733 5.33331C17.2533 5.33331 5.33325 17.28 5.33325 32C5.33325 46.72 17.2533 58.6667 31.9733 58.6667C46.7199 58.6667 58.6666 46.72 58.6666 32C58.6666 17.28 46.7199 5.33331 31.9733 5.33331ZM50.4533 21.3333H42.5866C41.7333 18 40.5066 14.8 38.9066 11.84C43.8133 13.52 47.8933 16.9333 50.4533 21.3333ZM31.9999 10.7733C34.2133 13.9733 35.9466 17.52 37.0933 21.3333H26.9066C28.0533 17.52 29.7866 13.9733 31.9999 10.7733ZM11.3599 37.3333C10.9333 35.6267 10.6666 33.84 10.6666 32C10.6666 30.16 10.9333 28.3733 11.3599 26.6667H20.3733C20.1599 28.4267 19.9999 30.1867 19.9999 32C19.9999 33.8133 20.1599 35.5733 20.3733 37.3333H11.3599ZM13.5466 42.6667H21.4133C22.2666 46 23.4933 49.2 25.0933 52.16C20.1866 50.48 16.1066 47.0933 13.5466 42.6667ZM21.4133 21.3333H13.5466C16.1066 16.9066 20.1866 13.52 25.0933 11.84C23.4933 14.8 22.2666 18 21.4133 21.3333ZM31.9999 53.2267C29.7866 50.0267 28.0533 46.48 26.9066 42.6667H37.0933C35.9466 46.48 34.2133 50.0267 31.9999 53.2267ZM38.2399 37.3333H25.7599C25.5199 35.5733 25.3333 33.8133 25.3333 32C25.3333 30.1867 25.5199 28.4 25.7599 26.6667H38.2399C38.4799 28.4 38.6666 30.1867 38.6666 32C38.6666 33.8133 38.4799 35.5733 38.2399 37.3333ZM38.9066 52.16C40.5066 49.2 41.7333 46 42.5866 42.6667H50.4533C47.8933 47.0667 43.8133 50.48 38.9066 52.16ZM43.6266 37.3333C43.8399 35.5733 43.9999 33.8133 43.9999 32C43.9999 30.1867 43.8399 28.4267 43.6266 26.6667H52.6399C53.0666 28.3733 53.3333 30.16 53.3333 32C53.3333 33.84 53.0666 35.6267 52.6399 37.3333H43.6266Z" fill="white"/>
  </g>
  <defs>
  <clipPath id="clip0_118_202">
  <rect width="64" height="64" fill="white"/>
  </clipPath>
  </defs>
  </svg>
  