<svg width="718" height="276" viewBox="0 0 718 276" fill="none" xmlns="http://www.w3.org/2000/svg">
  <path d="M16 128V38.4H33.664L90.368 105.344H87.296C86.8693 102.528 86.528 99.7973 86.272 97.152C86.016 94.4213 85.76 91.7333 85.504 89.088C85.3333 86.3573 85.1627 83.6267 84.992 80.896C84.9067 78.08 84.8213 75.2213 84.736 72.32C84.736 69.3333 84.736 66.176 84.736 62.848V38.4H103.552V128H85.632L27.904 60.416L32.256 60.544C32.512 63.7013 32.768 66.6027 33.024 69.248C33.28 71.808 33.536 74.1973 33.792 76.416C34.048 78.6347 34.2187 80.768 34.304 82.816C34.4747 84.864 34.6027 86.9547 34.688 89.088C34.7733 91.2213 34.816 93.44 34.816 95.744V128H16ZM168.783 129.28C160.676 129.28 153.551 127.787 147.407 124.8C141.348 121.813 136.612 117.717 133.199 112.512C129.786 107.307 128.079 101.333 128.079 94.592C128.079 89.216 129.06 84.352 131.023 80C132.986 75.648 135.716 71.8933 139.215 68.736C142.714 65.5787 146.81 63.1467 151.503 61.44C156.196 59.7333 161.231 58.88 166.607 58.88C171.727 58.88 176.463 59.6907 180.815 61.312C185.252 62.9333 189.092 65.28 192.335 68.352C195.578 71.3387 198.095 74.88 199.887 78.976C201.679 83.072 202.49 87.5947 202.319 92.544L202.191 98.432H140.623L137.679 87.04H187.215L185.167 89.344V86.528C184.911 84.224 183.887 82.1333 182.095 80.256C180.388 78.3787 178.212 76.8853 175.567 75.776C172.922 74.6667 170.02 74.112 166.863 74.112C162.596 74.112 158.842 74.8373 155.599 76.288C152.356 77.6533 149.796 79.744 147.919 82.56C146.127 85.376 145.231 88.9173 145.231 93.184C145.231 97.28 146.298 100.864 148.431 103.936C150.65 106.923 153.679 109.269 157.519 110.976C161.444 112.597 166.01 113.408 171.215 113.408C175.652 113.408 179.407 112.853 182.479 111.744C185.636 110.549 188.538 109.013 191.183 107.136L199.503 119.296C196.858 121.344 193.828 123.136 190.415 124.672C187.087 126.208 183.588 127.36 179.919 128.128C176.25 128.896 172.538 129.28 168.783 129.28ZM253.472 129.28C246.219 129.28 239.733 128.256 234.016 126.208C228.299 124.075 223.648 121.003 220.064 116.992L231.456 107.008C234.272 109.909 237.643 112.085 241.568 113.536C245.493 114.987 249.675 115.712 254.112 115.712C255.648 115.712 257.141 115.584 258.592 115.328C260.128 115.072 261.451 114.688 262.56 114.176C263.669 113.579 264.565 112.853 265.248 112C265.931 111.147 266.272 110.165 266.272 109.056C266.272 107.179 265.12 105.685 262.816 104.576C261.365 104.064 259.488 103.509 257.184 102.912C254.965 102.315 252.448 101.76 249.632 101.248C244.853 100.224 240.672 99.072 237.088 97.792C233.504 96.512 230.517 94.9333 228.128 93.056C226.251 91.264 224.8 89.2587 223.776 87.04C222.752 84.8213 222.24 82.2613 222.24 79.36C222.24 76.288 223.008 73.472 224.544 70.912C226.08 68.352 228.256 66.2187 231.072 64.512C233.888 62.72 237.088 61.3547 240.672 60.416C244.341 59.392 248.224 58.88 252.32 58.88C256.245 58.88 260.085 59.3067 263.84 60.16C267.68 60.928 271.307 62.08 274.72 63.616C278.133 65.152 281.077 67.072 283.552 69.376L274.08 80.384C272.203 78.9333 270.027 77.6107 267.552 76.416C265.077 75.136 262.475 74.1547 259.744 73.472C257.099 72.704 254.496 72.32 251.936 72.32C250.4 72.32 248.864 72.448 247.328 72.704C245.877 72.8747 244.597 73.216 243.488 73.728C242.379 74.24 241.483 74.88 240.8 75.648C240.203 76.416 239.904 77.3547 239.904 78.464C239.904 79.4027 240.117 80.256 240.544 81.024C241.056 81.7067 241.739 82.304 242.592 82.816C243.872 83.6693 245.707 84.4373 248.096 85.12C250.485 85.7173 253.429 86.4 256.928 87.168C261.877 88.192 266.144 89.3867 269.728 90.752C273.397 92.032 276.341 93.6533 278.56 95.616C280.352 96.9813 281.717 98.688 282.656 100.736C283.595 102.699 284.064 104.917 284.064 107.392C284.064 111.744 282.699 115.584 279.968 118.912C277.323 122.155 273.696 124.715 269.088 126.592C264.565 128.384 259.36 129.28 253.472 129.28ZM315.68 128V41.6H333.856V128H315.68ZM299.936 76.544V60.288H351.776V76.544H299.936ZM409.908 129.28C401.801 129.28 394.676 127.787 388.532 124.8C382.473 121.813 377.737 117.717 374.324 112.512C370.911 107.307 369.204 101.333 369.204 94.592C369.204 89.216 370.185 84.352 372.148 80C374.111 75.648 376.841 71.8933 380.34 68.736C383.839 65.5787 387.935 63.1467 392.628 61.44C397.321 59.7333 402.356 58.88 407.732 58.88C412.852 58.88 417.588 59.6907 421.94 61.312C426.377 62.9333 430.217 65.28 433.46 68.352C436.703 71.3387 439.22 74.88 441.012 78.976C442.804 83.072 443.615 87.5947 443.444 92.544L443.316 98.432H381.748L378.804 87.04H428.34L426.292 89.344V86.528C426.036 84.224 425.012 82.1333 423.22 80.256C421.513 78.3787 419.337 76.8853 416.692 75.776C414.047 74.6667 411.145 74.112 407.988 74.112C403.721 74.112 399.967 74.8373 396.724 76.288C393.481 77.6533 390.921 79.744 389.044 82.56C387.252 85.376 386.356 88.9173 386.356 93.184C386.356 97.28 387.423 100.864 389.556 103.936C391.775 106.923 394.804 109.269 398.644 110.976C402.569 112.597 407.135 113.408 412.34 113.408C416.777 113.408 420.532 112.853 423.604 111.744C426.761 110.549 429.663 109.013 432.308 107.136L440.628 119.296C437.983 121.344 434.953 123.136 431.54 124.672C428.212 126.208 424.713 127.36 421.044 128.128C417.375 128.896 413.663 129.28 409.908 129.28ZM495.877 129.28C489.221 129.28 483.29 127.787 478.085 124.8C472.965 121.728 468.954 117.589 466.053 112.384C463.237 107.093 461.829 100.992 461.829 94.08C461.829 87.3387 463.28 81.3227 466.181 76.032C469.168 70.7413 473.264 66.56 478.469 63.488C483.674 60.416 489.648 58.88 496.389 58.88C500.229 58.88 503.813 59.392 507.141 60.416C510.554 61.44 513.584 62.8053 516.229 64.512C518.874 66.2187 520.965 68.1387 522.501 70.272C524.122 72.32 525.018 74.4533 525.189 76.672L520.581 77.44V33.28H538.757V128H521.605L520.837 111.36L524.421 112.128C524.25 114.261 523.354 116.352 521.733 118.4C520.197 120.363 518.106 122.197 515.461 123.904C512.816 125.525 509.829 126.848 506.501 127.872C503.173 128.811 499.632 129.28 495.877 129.28ZM500.485 113.92C504.581 113.92 508.165 113.067 511.237 111.36C514.394 109.653 516.826 107.349 518.533 104.448C520.325 101.461 521.221 98.0053 521.221 94.08C521.221 90.24 520.325 86.8267 518.533 83.84C516.826 80.8533 514.394 78.5493 511.237 76.928C508.165 75.3067 504.581 74.496 500.485 74.496C496.389 74.496 492.805 75.3067 489.733 76.928C486.661 78.5493 484.272 80.8533 482.565 83.84C480.858 86.8267 480.005 90.24 480.005 94.08C480.005 98.0053 480.858 101.461 482.565 104.448C484.272 107.349 486.661 109.653 489.733 111.36C492.805 113.067 496.389 113.92 500.485 113.92Z" fill="#F6F6F6"/>
  <path d="M255.392 270.112C250.784 269.259 246.645 268.192 242.976 266.912C239.392 265.632 236.277 264.011 233.632 262.048C231.072 260.085 229.109 257.696 227.744 254.88C226.379 252.064 225.696 248.736 225.696 244.896L225.824 232.736C225.909 228.213 224.715 224.928 222.24 222.88C219.851 220.747 216.395 219.637 211.872 219.552H206.624V204.704H212.128C216.651 204.704 220.064 203.552 222.368 201.248C224.757 198.944 225.909 195.616 225.824 191.264L225.696 179.104C225.696 172.192 228 166.731 232.608 162.72C237.301 158.709 244.896 155.765 255.392 153.888L259.104 167.456C255.605 168.395 252.661 169.419 250.272 170.528C247.883 171.552 246.048 173.003 244.768 174.88C243.573 176.757 242.976 179.36 242.976 182.688L243.232 193.056C243.317 198.091 241.781 202.272 238.624 205.6C235.552 208.843 230.816 211.189 224.416 212.64V211.232C230.816 212.853 235.552 215.328 238.624 218.656C241.781 221.899 243.317 225.995 243.232 230.944L242.976 241.312C242.976 244.469 243.531 246.944 244.64 248.736C245.835 250.528 247.627 251.936 250.016 252.96C252.491 253.984 255.52 255.008 259.104 256.032L255.392 270.112ZM658.538 270.112L654.698 256.544C658.282 255.605 661.269 254.581 663.658 253.472C666.047 252.448 667.882 250.997 669.162 249.12C670.442 247.243 671.039 244.64 670.954 241.312L670.698 230.944C670.698 225.909 672.234 221.771 675.306 218.528C678.463 215.2 683.157 212.811 689.386 211.36L689.514 212.768C683.199 211.147 678.463 208.715 675.306 205.472C672.234 202.144 670.698 198.005 670.698 193.056L670.954 182.688C671.039 179.445 670.485 176.971 669.29 175.264C668.095 173.472 666.303 172.064 663.914 171.04C661.525 170.016 658.453 168.992 654.698 167.968L658.538 153.888C663.231 154.656 667.37 155.723 670.954 157.088C674.538 158.368 677.653 159.989 680.298 161.952C682.943 163.915 684.906 166.304 686.186 169.12C687.551 171.936 688.234 175.264 688.234 179.104L688.106 191.264C688.106 195.787 689.301 199.115 691.69 201.248C694.079 203.296 697.535 204.363 702.058 204.448H707.306V219.296H701.802C697.279 219.296 693.866 220.448 691.562 222.752C689.258 225.056 688.106 228.384 688.106 232.736L688.234 244.896C688.319 251.808 685.973 257.269 681.194 261.28C676.501 265.291 668.949 268.235 658.538 270.112Z" fill="#E8820B"/>
  <path d="M314.985 245.28C307.646 245.28 301.118 243.744 295.401 240.672C289.769 237.6 285.289 233.419 281.961 228.128C278.718 222.837 277.097 216.821 277.097 210.08C277.097 203.424 278.718 197.451 281.961 192.16C285.289 186.784 289.769 182.56 295.401 179.488C301.033 176.416 307.433 174.88 314.601 174.88C321.428 174.88 327.657 175.989 333.289 178.208C339.006 180.341 343.572 183.328 346.985 187.168L337.129 199.968C335.508 198.261 333.545 196.725 331.241 195.36C328.937 193.909 326.505 192.8 323.945 192.032C321.385 191.179 318.74 190.752 316.009 190.752C311.913 190.752 308.286 191.605 305.129 193.312C301.972 194.933 299.497 197.195 297.705 200.096C295.998 202.997 295.145 206.325 295.145 210.08C295.145 213.749 296.041 217.035 297.833 219.936C299.625 222.752 302.1 225.056 305.257 226.848C308.414 228.555 311.998 229.408 316.009 229.408C319.081 229.408 321.897 229.067 324.457 228.384C327.017 227.616 329.364 226.635 331.497 225.44C333.63 224.245 335.508 222.88 337.129 221.344L346.985 233.888C343.23 237.131 338.58 239.861 333.033 242.08C327.572 244.213 321.556 245.28 314.985 245.28ZM404.283 245.28C396.603 245.28 389.734 243.787 383.675 240.8C377.702 237.728 372.966 233.547 369.467 228.256C366.054 222.965 364.347 216.907 364.347 210.08C364.347 203.253 366.054 197.237 369.467 192.032C372.966 186.741 377.702 182.56 383.675 179.488C389.734 176.416 396.603 174.88 404.283 174.88C412.048 174.88 418.918 176.416 424.891 179.488C430.864 182.56 435.558 186.741 438.971 192.032C442.47 197.237 444.219 203.253 444.219 210.08C444.219 216.907 442.47 222.965 438.971 228.256C435.558 233.547 430.864 237.728 424.891 240.8C418.918 243.787 412.048 245.28 404.283 245.28ZM404.283 229.408C408.379 229.408 412.048 228.597 415.291 226.976C418.534 225.269 421.094 222.965 422.971 220.064C424.934 217.077 425.872 213.749 425.787 210.08C425.872 206.325 424.934 202.997 422.971 200.096C421.094 197.109 418.534 194.805 415.291 193.184C412.048 191.477 408.379 190.624 404.283 190.624C400.272 190.624 396.603 191.477 393.275 193.184C389.947 194.891 387.344 197.195 385.467 200.096C383.59 202.912 382.694 206.24 382.779 210.08C382.694 213.749 383.59 217.077 385.467 220.064C387.344 222.965 389.947 225.269 393.275 226.976C396.603 228.597 400.272 229.408 404.283 229.408ZM496.502 245.28C489.846 245.28 483.915 243.787 478.71 240.8C473.59 237.728 469.579 233.589 466.678 228.384C463.862 223.093 462.454 216.992 462.454 210.08C462.454 203.339 463.905 197.323 466.806 192.032C469.793 186.741 473.889 182.56 479.094 179.488C484.299 176.416 490.273 174.88 497.014 174.88C500.854 174.88 504.438 175.392 507.766 176.416C511.179 177.44 514.209 178.805 516.854 180.512C519.499 182.219 521.59 184.139 523.126 186.272C524.747 188.32 525.643 190.453 525.814 192.672L521.206 193.44V149.28H539.382V244H522.23L521.462 227.36L525.046 228.128C524.875 230.261 523.979 232.352 522.358 234.4C520.822 236.363 518.731 238.197 516.086 239.904C513.441 241.525 510.454 242.848 507.126 243.872C503.798 244.811 500.257 245.28 496.502 245.28ZM501.11 229.92C505.206 229.92 508.79 229.067 511.862 227.36C515.019 225.653 517.451 223.349 519.158 220.448C520.95 217.461 521.846 214.005 521.846 210.08C521.846 206.24 520.95 202.827 519.158 199.84C517.451 196.853 515.019 194.549 511.862 192.928C508.79 191.307 505.206 190.496 501.11 190.496C497.014 190.496 493.43 191.307 490.358 192.928C487.286 194.549 484.897 196.853 483.19 199.84C481.483 202.827 480.63 206.24 480.63 210.08C480.63 214.005 481.483 217.461 483.19 220.448C484.897 223.349 487.286 225.653 490.358 227.36C493.43 229.067 497.014 229.92 501.11 229.92ZM603.033 245.28C594.926 245.28 587.801 243.787 581.657 240.8C575.598 237.813 570.862 233.717 567.449 228.512C564.036 223.307 562.329 217.333 562.329 210.592C562.329 205.216 563.31 200.352 565.273 196C567.236 191.648 569.966 187.893 573.465 184.736C576.964 181.579 581.06 179.147 585.753 177.44C590.446 175.733 595.481 174.88 600.857 174.88C605.977 174.88 610.713 175.691 615.065 177.312C619.502 178.933 623.342 181.28 626.585 184.352C629.828 187.339 632.345 190.88 634.137 194.976C635.929 199.072 636.74 203.595 636.569 208.544L636.441 214.432H574.873L571.929 203.04H621.465L619.417 205.344V202.528C619.161 200.224 618.137 198.133 616.345 196.256C614.638 194.379 612.462 192.885 609.817 191.776C607.172 190.667 604.27 190.112 601.113 190.112C596.846 190.112 593.092 190.837 589.849 192.288C586.606 193.653 584.046 195.744 582.169 198.56C580.377 201.376 579.481 204.917 579.481 209.184C579.481 213.28 580.548 216.864 582.681 219.936C584.9 222.923 587.929 225.269 591.769 226.976C595.694 228.597 600.26 229.408 605.465 229.408C609.902 229.408 613.657 228.853 616.729 227.744C619.886 226.549 622.788 225.013 625.433 223.136L633.753 235.296C631.108 237.344 628.078 239.136 624.665 240.672C621.337 242.208 617.838 243.36 614.169 244.128C610.5 244.896 606.788 245.28 603.033 245.28Z" fill="#F7F7F7"/>
  </svg>
  