<svg width="1799" height="339" viewBox="0 0 1799 339" fill="none" xmlns="http://www.w3.org/2000/svg">
  <path d="M0.26416 150V2.83594H67.5796C82.9429 2.83594 93.9937 6.20508 100.732 12.9434C107.47 19.6143 110.839 28.6436 110.839 40.0312C110.839 48.4541 109.054 55.4282 105.482 60.9536C101.979 66.479 97.228 70.3198 91.231 72.4761V72.8804C98.5083 74.6323 104.606 78.4058 109.525 84.2007C114.444 89.9282 116.904 98.1152 116.904 108.762C116.904 121.632 112.726 131.739 104.371 139.084C96.0151 146.361 84.3916 150 69.5 150H0.26416ZM43.0186 121.8H56.8657C61.9868 121.8 65.8276 120.217 68.3882 117.05C70.9487 113.883 72.229 109.671 72.229 104.416C72.229 99.0923 70.9487 94.8135 68.3882 91.5791C65.8276 88.3447 61.9868 86.7275 56.8657 86.7275H43.0186V121.8ZM43.0186 65.4009H55.5518C60.3359 65.4009 63.8062 63.9521 65.9624 61.0547C68.186 58.0898 69.2979 53.9795 69.2979 48.7236C69.2979 43.4678 68.186 39.4585 65.9624 36.6958C63.8062 33.9331 60.3359 32.5518 55.5518 32.5518H43.0186V65.4009ZM123.474 80.3599V72.4761C123.474 47.4097 129.403 29.2163 141.263 17.896C153.189 6.5083 168.384 0.814453 186.847 0.814453C205.445 0.814453 220.673 6.5083 232.533 17.896C244.392 29.2163 250.322 47.4097 250.322 72.4761V80.3599C250.322 105.426 244.392 123.653 232.533 135.041C220.673 146.361 205.445 152.021 186.847 152.021C168.384 152.021 153.189 146.361 141.263 135.041C129.403 123.653 123.474 105.426 123.474 80.3599ZM169.563 94.5103C169.563 104.82 171.046 112.131 174.011 116.443C177.043 120.756 181.322 122.912 186.847 122.912C192.44 122.912 196.719 120.756 199.684 116.443C202.716 112.131 204.232 104.82 204.232 94.5103V58.6289C204.232 48.4541 202.716 41.2441 199.684 36.999C196.719 32.7539 192.44 30.6313 186.847 30.6313C181.322 30.6313 177.043 32.7539 174.011 36.999C171.046 41.2441 169.563 48.4541 169.563 58.6289V94.5103ZM259.52 80.3599V72.4761C259.52 47.4097 265.449 29.2163 277.309 17.896C289.235 6.5083 304.43 0.814453 322.893 0.814453C341.491 0.814453 356.719 6.5083 368.579 17.896C380.438 29.2163 386.368 47.4097 386.368 72.4761V80.3599C386.368 105.426 380.438 123.653 368.579 135.041C356.719 146.361 341.491 152.021 322.893 152.021C304.43 152.021 289.235 146.361 277.309 135.041C265.449 123.653 259.52 105.426 259.52 80.3599ZM305.609 94.5103C305.609 104.82 307.092 112.131 310.057 116.443C313.089 120.756 317.368 122.912 322.893 122.912C328.486 122.912 332.765 120.756 335.729 116.443C338.762 112.131 340.278 104.82 340.278 94.5103V58.6289C340.278 48.4541 338.762 41.2441 335.729 36.999C332.765 32.7539 328.486 30.6313 322.893 30.6313C317.368 30.6313 313.089 32.7539 310.057 36.999C307.092 41.2441 305.609 48.4541 305.609 58.6289V94.5103ZM393.746 110.884V101.99H433.367V106.74C433.367 112.535 434.816 116.848 437.713 119.678C440.678 122.44 444.789 123.822 450.044 123.822C454.896 123.822 458.669 122.643 461.365 120.284C464.06 117.858 465.408 114.557 465.408 110.379C465.408 106.74 463.858 103.742 460.758 101.383C457.659 99.0249 450.752 96.0938 440.038 92.5898C424.607 87.4688 413.287 81.3032 406.077 74.0933C398.867 66.8159 395.262 57.1128 395.262 44.9839C395.262 31.103 400.147 20.2881 409.918 12.5391C419.756 4.79004 432.693 0.915527 448.73 0.915527C464.768 0.915527 477.772 4.31836 487.745 11.124C497.785 17.9297 502.805 27.6665 502.805 40.3345V47.5107H463.791V44.1753C463.791 39.728 462.578 36.2915 460.152 33.8657C457.726 31.3726 454.256 30.126 449.741 30.126C444.89 30.126 441.386 31.1704 439.229 33.2593C437.073 35.3481 435.995 38.0771 435.995 41.4463C435.995 44.6133 437.646 47.2749 440.948 49.4312C444.25 51.52 451.83 54.3164 463.689 57.8203C477.975 62.0654 488.587 67.9277 495.528 75.4072C502.536 82.8193 506.04 92.9941 506.04 105.932C506.04 120.486 500.918 131.807 490.676 139.893C480.434 147.979 467.126 152.021 450.752 152.021C434.311 152.021 420.699 148.551 409.918 141.611C399.137 134.67 393.746 124.428 393.746 110.884ZM510.184 37.6055V2.83594H629.451V37.6055H592.256V150H547.48V37.6055H510.184ZM722.642 150V93.3984L676.653 2.83594H724.259L744.474 43.771C745.08 45.1187 745.653 46.3315 746.192 47.4097C746.731 48.4878 747.236 49.7007 747.708 51.0483H748.112C748.584 49.7007 749.056 48.4878 749.527 47.4097C750.066 46.3315 750.673 45.1187 751.347 43.771L771.056 2.83594H813.204L767.417 93.3984V150H722.642ZM805.725 80.3599V72.4761C805.725 47.4097 811.654 29.2163 823.514 17.896C835.44 6.5083 850.635 0.814453 869.098 0.814453C887.696 0.814453 902.924 6.5083 914.784 17.896C926.643 29.2163 932.573 47.4097 932.573 72.4761V80.3599C932.573 105.426 926.643 123.653 914.784 135.041C902.924 146.361 887.696 152.021 869.098 152.021C850.635 152.021 835.44 146.361 823.514 135.041C811.654 123.653 805.725 105.426 805.725 80.3599ZM851.814 94.5103C851.814 104.82 853.297 112.131 856.262 116.443C859.294 120.756 863.573 122.912 869.098 122.912C874.691 122.912 878.97 120.756 881.935 116.443C884.967 112.131 886.483 104.82 886.483 94.5103V58.6289C886.483 48.4541 884.967 41.2441 881.935 36.999C878.97 32.7539 874.691 30.6313 869.098 30.6313C863.573 30.6313 859.294 32.7539 856.262 36.999C853.297 41.2441 851.814 48.4541 851.814 58.6289V94.5103ZM944.297 95.1167V2.83594H988.265V101.99C988.265 109.604 989.41 114.961 991.701 118.061C993.992 121.16 997.361 122.71 1001.81 122.71C1006.19 122.71 1009.49 121.16 1011.71 118.061C1014 114.961 1015.15 109.604 1015.15 101.99V2.83594H1059.32V95.1167C1059.32 114.456 1054.33 128.774 1044.36 138.073C1034.46 147.372 1020.51 152.021 1002.52 152.021C983.784 152.021 969.397 147.372 959.357 138.073C949.317 128.774 944.297 114.456 944.297 95.1167ZM1073.47 150V2.83594H1141.09C1155.37 2.83594 1166.86 7.24951 1175.56 16.0767C1184.25 24.9038 1188.59 36.4263 1188.59 50.644C1188.59 65.4009 1183.91 77.4961 1174.54 86.9297C1165.18 96.3633 1153.82 101.08 1140.48 101.08H1117.64V150H1073.47ZM1117.64 73.2847H1129.57C1134.89 73.2847 1138.6 71.4653 1140.68 67.8267C1142.84 64.1206 1143.92 59.3701 1143.92 53.5752C1143.92 47.7129 1142.84 42.895 1140.68 39.1216C1138.6 35.3481 1134.89 33.4277 1129.57 33.3604H1117.64V73.2847ZM1146.85 150L1123.2 87.5361L1161.1 75.3062L1194.66 150H1146.85ZM1252.98 150V2.83594H1297.75V150H1252.98ZM1312.61 150V2.83594H1370.53C1389.8 2.83594 1404.69 8.93408 1415.2 21.1304C1425.71 33.2593 1430.97 50.2734 1430.97 72.1729V80.0566C1430.97 101.889 1425.68 119.004 1415.1 131.402C1404.52 143.801 1389.66 150 1370.53 150H1312.61ZM1355.37 120.284H1365.57C1372.38 120.284 1377.57 117.589 1381.14 112.198C1384.71 106.74 1386.5 98.3174 1386.5 86.9297V66.1084C1386.5 54.5186 1384.68 46.2642 1381.04 41.3452C1377.4 36.4263 1372.25 33.9668 1365.57 33.9668H1355.37V120.284ZM1442.59 150V2.83594H1544.27V37.6055H1484.74V60.8525H1535.68V90.8716H1484.74V116.646H1545.99V150H1442.59ZM1545.59 150L1591.98 2.83594H1640.5L1685.47 150H1642.42L1617.65 59.5386C1616.91 56.7759 1616.27 54.3838 1615.73 52.3623C1615.26 50.2734 1614.89 48.6899 1614.62 47.6118H1614.42C1614.08 48.6899 1613.64 50.2397 1613.11 52.2612C1612.63 54.2827 1612.06 56.6748 1611.39 59.4375L1588.24 150H1545.59ZM1574.7 125.237L1580.05 97.1382H1649.69L1655.66 125.237H1574.7ZM1686.08 110.884V101.99H1725.7V106.74C1725.7 112.535 1727.15 116.848 1730.05 119.678C1733.01 122.44 1737.12 123.822 1742.38 123.822C1747.23 123.822 1751 122.643 1753.7 120.284C1756.4 117.858 1757.74 114.557 1757.74 110.379C1757.74 106.74 1756.19 103.742 1753.09 101.383C1749.99 99.0249 1743.09 96.0938 1732.37 92.5898C1716.94 87.4688 1705.62 81.3032 1698.41 74.0933C1691.2 66.8159 1687.6 57.1128 1687.6 44.9839C1687.6 31.103 1692.48 20.2881 1702.25 12.5391C1712.09 4.79004 1725.03 0.915527 1741.07 0.915527C1757.1 0.915527 1770.11 4.31836 1780.08 11.124C1790.12 17.9297 1795.14 27.6665 1795.14 40.3345V47.5107H1756.13V44.1753C1756.13 39.728 1754.91 36.2915 1752.49 33.8657C1750.06 31.3726 1746.59 30.126 1742.08 30.126C1737.22 30.126 1733.72 31.1704 1731.56 33.2593C1729.41 35.3481 1728.33 38.0771 1728.33 41.4463C1728.33 44.6133 1729.98 47.2749 1733.28 49.4312C1736.58 51.52 1744.17 54.3164 1756.02 57.8203C1770.31 62.0654 1780.92 67.9277 1787.86 75.4072C1794.87 82.8193 1798.37 92.9941 1798.37 105.932C1798.37 120.486 1793.25 131.807 1783.01 139.893C1772.77 147.979 1759.46 152.021 1743.09 152.021C1726.65 152.021 1713.03 148.551 1702.25 141.611C1691.47 134.67 1686.08 124.428 1686.08 110.884ZM199.38 336V188.836H244.156V336H199.38ZM259.014 336V188.836H302.779L331.08 256.151C331.821 258.375 332.596 260.834 333.405 263.53C334.281 266.158 334.955 268.583 335.426 270.807H336.033C335.898 268.516 335.831 266.124 335.831 263.631C335.898 261.07 335.932 258.645 335.932 256.354V188.836H373.127V336H330.777L300.859 267.674C300.05 265.585 299.242 263.361 298.433 261.003C297.625 258.577 296.951 256.286 296.412 254.13H295.906C296.041 256.421 296.108 258.543 296.108 260.498C296.176 262.452 296.209 264.608 296.209 266.966V336H259.014ZM381.011 223.605V188.836H500.278V223.605H463.083V336H418.307V223.605H381.011ZM501.289 266.36V258.476C501.289 233.41 507.219 215.216 519.078 203.896C531.005 192.508 546.2 186.814 564.663 186.814C583.26 186.814 598.489 192.508 610.348 203.896C622.208 215.216 628.137 233.41 628.137 258.476V266.36C628.137 291.426 622.208 309.653 610.348 321.041C598.489 332.361 583.26 338.021 564.663 338.021C546.2 338.021 531.005 332.361 519.078 321.041C507.219 309.653 501.289 291.426 501.289 266.36ZM547.379 280.51C547.379 290.82 548.861 298.131 551.826 302.443C554.858 306.756 559.137 308.912 564.663 308.912C570.255 308.912 574.534 306.756 577.499 302.443C580.531 298.131 582.047 290.82 582.047 280.51V244.629C582.047 234.454 580.531 227.244 577.499 222.999C574.534 218.754 570.255 216.631 564.663 216.631C559.137 216.631 554.858 218.754 551.826 222.999C548.861 227.244 547.379 234.454 547.379 244.629V280.51ZM692.825 336V188.836H760.14C775.503 188.836 786.554 192.205 793.292 198.943C800.031 205.614 803.4 214.644 803.4 226.031C803.4 234.454 801.614 241.428 798.043 246.954C794.539 252.479 789.789 256.32 783.792 258.476V258.88C791.069 260.632 797.167 264.406 802.086 270.201C807.005 275.928 809.464 284.115 809.464 294.762C809.464 307.632 805.287 317.739 796.931 325.084C788.576 332.361 776.952 336 762.061 336H692.825ZM735.579 307.8H749.426C754.547 307.8 758.388 306.217 760.949 303.05C763.509 299.883 764.79 295.671 764.79 290.416C764.79 285.092 763.509 280.813 760.949 277.579C758.388 274.345 754.547 272.728 749.426 272.728H735.579V307.8ZM735.579 251.401H748.112C752.896 251.401 756.367 249.952 758.523 247.055C760.747 244.09 761.858 239.979 761.858 234.724C761.858 229.468 760.747 225.458 758.523 222.696C756.367 219.933 752.896 218.552 748.112 218.552H735.579V251.401ZM818.561 281.117V188.836H862.528V287.99C862.528 295.604 863.674 300.961 865.965 304.061C868.256 307.16 871.625 308.71 876.072 308.71C880.452 308.71 883.754 307.16 885.978 304.061C888.269 300.961 889.414 295.604 889.414 287.99V188.836H933.583V281.117C933.583 300.456 928.597 314.774 918.625 324.073C908.719 333.372 894.771 338.021 876.78 338.021C858.047 338.021 843.661 333.372 833.621 324.073C823.581 314.774 818.561 300.456 818.561 281.117ZM943.388 296.884V287.99H983.009V292.74C983.009 298.535 984.458 302.848 987.355 305.678C990.32 308.44 994.43 309.822 999.686 309.822C1004.54 309.822 1008.31 308.643 1011.01 306.284C1013.7 303.858 1015.05 300.557 1015.05 296.379C1015.05 292.74 1013.5 289.742 1010.4 287.383C1007.3 285.025 1000.39 282.094 989.68 278.59C974.249 273.469 962.929 267.303 955.719 260.093C948.509 252.816 944.904 243.113 944.904 230.984C944.904 217.103 949.789 206.288 959.56 198.539C969.397 190.79 982.335 186.916 998.372 186.916C1014.41 186.916 1027.41 190.318 1037.39 197.124C1047.43 203.93 1052.45 213.667 1052.45 226.334V233.511H1013.43V230.175C1013.43 225.728 1012.22 222.292 1009.79 219.866C1007.37 217.373 1003.9 216.126 999.383 216.126C994.531 216.126 991.027 217.17 988.871 219.259C986.715 221.348 985.637 224.077 985.637 227.446C985.637 230.613 987.288 233.275 990.589 235.431C993.891 237.52 1001.47 240.316 1013.33 243.82C1027.62 248.065 1038.23 253.928 1045.17 261.407C1052.18 268.819 1055.68 278.994 1055.68 291.932C1055.68 306.486 1050.56 317.807 1040.32 325.893C1030.08 333.979 1016.77 338.021 1000.39 338.021C983.952 338.021 970.341 334.551 959.56 327.611C948.778 320.67 943.388 310.428 943.388 296.884ZM1067.2 336V188.836H1111.98V336H1067.2ZM1126.84 336V188.836H1170.6L1198.9 256.151C1199.64 258.375 1200.42 260.834 1201.23 263.53C1202.1 266.158 1202.78 268.583 1203.25 270.807H1203.86C1203.72 268.516 1203.65 266.124 1203.65 263.631C1203.72 261.07 1203.75 258.645 1203.75 256.354V188.836H1240.95V336H1198.6L1168.68 267.674C1167.87 265.585 1167.06 263.361 1166.26 261.003C1165.45 258.577 1164.77 256.286 1164.23 254.13H1163.73C1163.86 256.421 1163.93 258.543 1163.93 260.498C1164 262.452 1164.03 264.608 1164.03 266.966V336H1126.84ZM1255.2 336V188.836H1356.88V223.605H1297.35V246.853H1348.29V276.872H1297.35V302.646H1358.6V336H1255.2ZM1366.08 296.884V287.99H1405.7V292.74C1405.7 298.535 1407.15 302.848 1410.05 305.678C1413.01 308.44 1417.12 309.822 1422.38 309.822C1427.23 309.822 1431 308.643 1433.7 306.284C1436.39 303.858 1437.74 300.557 1437.74 296.379C1437.74 292.74 1436.19 289.742 1433.09 287.383C1429.99 285.025 1423.09 282.094 1412.37 278.59C1396.94 273.469 1385.62 267.303 1378.41 260.093C1371.2 252.816 1367.6 243.113 1367.6 230.984C1367.6 217.103 1372.48 206.288 1382.25 198.539C1392.09 190.79 1405.03 186.916 1421.06 186.916C1437.1 186.916 1450.11 190.318 1460.08 197.124C1470.12 203.93 1475.14 213.667 1475.14 226.334V233.511H1436.12V230.175C1436.12 225.728 1434.91 222.292 1432.49 219.866C1430.06 217.373 1426.59 216.126 1422.08 216.126C1417.22 216.126 1413.72 217.17 1411.56 219.259C1409.41 221.348 1408.33 224.077 1408.33 227.446C1408.33 230.613 1409.98 233.275 1413.28 235.431C1416.58 237.52 1424.16 240.316 1436.02 243.82C1450.31 248.065 1460.92 253.928 1467.86 261.407C1474.87 268.819 1478.37 278.994 1478.37 291.932C1478.37 306.486 1473.25 317.807 1463.01 325.893C1452.77 333.979 1439.46 338.021 1423.09 338.021C1406.64 338.021 1393.03 334.551 1382.25 327.611C1371.47 320.67 1366.08 310.428 1366.08 296.884ZM1487.57 296.884V287.99H1527.19V292.74C1527.19 298.535 1528.64 302.848 1531.54 305.678C1534.5 308.44 1538.61 309.822 1543.87 309.822C1548.72 309.822 1552.49 308.643 1555.19 306.284C1557.89 303.858 1559.23 300.557 1559.23 296.379C1559.23 292.74 1557.68 289.742 1554.58 287.383C1551.48 285.025 1544.58 282.094 1533.86 278.59C1518.43 273.469 1507.11 267.303 1499.9 260.093C1492.69 252.816 1489.09 243.113 1489.09 230.984C1489.09 217.103 1493.97 206.288 1503.74 198.539C1513.58 190.79 1526.52 186.916 1542.56 186.916C1558.59 186.916 1571.6 190.318 1581.57 197.124C1591.61 203.93 1596.63 213.667 1596.63 226.334V233.511H1557.62V230.175C1557.62 225.728 1556.4 222.292 1553.98 219.866C1551.55 217.373 1548.08 216.126 1543.57 216.126C1538.71 216.126 1535.21 217.17 1533.05 219.259C1530.9 221.348 1529.82 224.077 1529.82 227.446C1529.82 230.613 1531.47 233.275 1534.77 235.431C1538.07 237.52 1545.66 240.316 1557.51 243.82C1571.8 248.065 1582.41 253.928 1589.35 261.407C1596.36 268.819 1599.86 278.994 1599.86 291.932C1599.86 306.486 1594.74 317.807 1584.5 325.893C1574.26 333.979 1560.95 338.021 1544.58 338.021C1528.14 338.021 1514.52 334.551 1503.74 327.611C1492.96 320.67 1487.57 310.428 1487.57 296.884Z" fill="#FDFDFD"/>
  </svg>
  